<svg version="1.0" xmlns="http://www.w3.org/2000/svg" width="778.667" height="778.667" viewBox="0 0 584 584"><path d="M281.5 1.4c-7.3 2.3-14.9 6.9-19.2 11.6-2.7 3-8.2 13.1-8.9 16.2-1.2 5.5-1.1 15.1.1 19.7 3.6 13.8 12.9 23.3 28 28.7 6.7 2.3 24.4.3 28.6-3.3.8-.7 2-1.3 2.6-1.3 1.2 0 11.3-9.2 11.3-10.3 0-.5.6-1.5 1.4-2.3 4.4-4.3 7.3-20.2 5.4-28.9C328.2 20 319.3 8.6 309 3.8 301 0 289.1-1 281.5 1.4zM237.7 40.6c-.1.2-3.6 1-7.7 1.8-12.3 2.6-34.4 9.7-45.5 14.7-2.7 1.2-5.1 2.1-5.3 2-.5-.3-29.2 14.8-30.2 16-.3.3-2.7 1.9-5.5 3.4-2.7 1.6-5.2 3.2-5.5 3.5-.3.3-2.7 2-5.5 3.9C114.9 98 91.1 120.2 76.9 138 68 149.2 56 166.3 56 167.9c0 .6-.3 1.1-.8 1.1-.4 0-2.3 3-4.2 6.7-1.9 3.8-4.5 8.6-5.9 10.8-1.3 2.2-2.3 4-2.2 4 .2 0-.9 2.7-2.4 6-7.8 17.2-16.4 43-18 53.5-.2 1.4-.9 5-1.5 8-1.8 8.7-2.8 15.3-3.8 24.5-.8 8.3-.8 45.6 0 53.5 1.1 10.2 3.2 23.8 4.4 29 .3 1.4.8 3.6 1.1 5 .2 1.4 1.3 5.9 2.5 10 1.1 4.1 2.1 7.9 2.2 8.5.2.5.6 1.7.9 2.5.3.8 1.3 4 2.3 7 .9 3 2.3 6.7 3 8.2l1.4 2.7 3.4-2 3.3-1.9-2.4-6.8c-1.4-3.7-2.6-7.4-2.8-8.2-.2-.8-1.3-4.7-2.5-8.5-2-6.6-4.6-18-5.5-23.5-.2-1.4-.6-3.6-.9-5-2.3-11.9-3-21.8-3-42-.1-23 .6-32 3.5-46.7.6-2.9 1.2-6.5 1.4-8 .2-1.6.4-2.8.5-2.8.2 0 .5-1.5 1.3-5.5 2.7-13.9 13.2-42.2 21.7-58.5 8-15.3 20.6-35.5 22.2-35.5.4 0 .8-.6.8-1.4 0-.8.3-1.6.8-1.8.4-.2 2-2.1 3.7-4.3 9.4-12.6 24.8-28.4 40.4-41.5 7.5-6.3 28.3-21 29.8-21 .6 0 1.3-.4 1.5-.8.8-2 23.6-13.9 36.8-19.2 3-1.2 6.9-2.8 8.5-3.5 5.4-2.3 21.8-7.2 31.5-9.5 5.2-1.2 10.1-2.3 10.8-2.6 1.8-.5 1.6-8.1-.3-8.1-.8 0-1.6.2-1.8.3zM343.5 41.3c-.2.7-.5 2.4-.8 4-.4 2.3 0 2.8 2.2 3.3 1.4.3 3.7.8 5.1 1.1 1.4.3 3.4.8 4.4 1 6.4 1.2 29.8 8.6 37.1 11.8 16 6.9 22.4 10 35 17 11 6.2 29.4 19.1 38.5 27 11.5 10.1 20.8 19.1 28.4 27.9 2.8 3.2 5.6 6.4 6.1 7 4 4.2 15.4 20.4 22.8 32.2 7.5 12.1 22.9 45.8 23.9 52.4 0 .3.9 3 2 6 2 5.9 6.4 23.2 7.3 29 .3 1.9.7 4.6 1 6 .2 1.4.7 4.3 1 6.5.2 2.2.8 6.2 1.2 9 1.2 8.5.8 48.4-.6 59-1.5 12-6.6 36.7-8.1 39.5-.6 1.1-.9 2-.6 2 .4 0-4.9 16.4-6.9 21.2-.5 1.3-.2 1.8.8 1.8.8 0 2 .7 2.7 1.5.7.8 1.8 1.5 2.4 1.5 1.7 0 11-28.1 13-39.3.2-1.5.7-3.5 1-4.5.3-.9.7-3.3 1-5.2.3-1.9.7-4.4 1-5.5.2-1.1.7-4.7 1-8 .4-3.3 1.1-8.7 1.6-12 .8-5.9.5-48.3-.4-54-.3-1.6-.8-5.2-1.2-8-.3-2.7-.8-5.7-.9-6.6-.2-.9-.6-3.4-.9-5.5-.4-2.1-1.4-6.8-2.2-10.4-.9-3.6-1.7-7.2-1.9-8.1-.2-.8-1.1-4-2-7-.9-3-1.8-6.4-2.1-7.7-.7-3.5-8.9-24.2-13.2-33.3-2.1-4.6-4-8.9-4.1-9.4-.1-.6-.8-1.7-1.5-2.5-.6-.8-2.2-3.5-3.6-6-4.9-9.3-19.8-31.2-25.5-37.7-.5-.6-2.6-3.1-4.5-5.5-4.4-5.4-26.1-27.2-31.5-31.5-14.4-11.7-25.6-19.9-32.3-23.8-.9-.5-3.9-2.3-6.7-4-2.7-1.7-8.1-4.6-12-6.5-3.8-1.9-7.3-3.9-7.6-4.3-.3-.5-1-.9-1.5-.9s-2.7-.8-4.9-1.8c-15-6.8-36-14-48.4-16.6-1.3-.3-5.1-1.1-8.3-1.9-4.5-1-6-1.1-6.3-.2z"/><path d="M290.9 85.4c-.2.2-4 .6-8.4 1-22.1 1.6-41.4 11.3-48 24-1.8 3.5-2.8 4.2-11 7.1-12.6 4.5-13.8 5-25 10.7-33.7 16.9-63.1 44.4-83.3 77.7-9.6 15.9-18.7 38.1-22.7 55.6-.4 1.6-.9 3.9-1.2 5-.2 1.1-.6 2.9-.8 4-.2 1.1-.6 3.1-.9 4.5-3.2 16.8-3.8 46.6-1.2 61 .3 1.4.7 4.3 1 6.5.6 5.1 2.2 13 3.5 17.3.9 2.9.6 4.2-2.2 9.5-3 5.6-3.2 6.8-3.2 15.6 0 8.1.6 13.4 1.9 18.6.2.5.9 2.3 1.5 4 .7 1.6 1.4 3.8 1.6 4.8.4 1.6 7 14.8 8.7 17.2 6.4 8.9 14 17.4 19.6 21.9 7.7 6.2 18.1 11.5 23.6 12 2 .2 3.9.6 4.2.9.3.3 2 .1 3.7-.4 4.3-1.2 4.3-1.2 6.9 1.4 1.3 1.2 5.2 4.4 8.8 7 3.6 2.7 7.2 5.3 8.1 6 6.5 4.9 25.1 14.9 37.4 20 10.6 4.4 29.6 10.3 36 11.2 1.1.1 3.6.5 5.5.9 7.9 1.4 9.8 1.7 16 2.3 12.2 1.3 43.9.6 51.6-1.1 1.2-.2 3.9-.7 6-1 9.1-1.5 30.9-7.4 35.4-9.7.8-.4 5.1-2.2 9.5-4 17.3-7.2 34.8-17.8 49.6-30.3 4.5-3.7 5-3.8 12.5-4 7-.1 8.8-.6 15.4-3.9 7.1-3.5 9.2-5 16.5-11.5 4.4-4 13.5-14.7 13.5-15.9 0-.6.4-1.3.9-1.5.9-.3 9-15.6 10.7-20.3 3.8-10.4 4.7-15.4 4.6-26-.1-7.3-1.9-13.8-5.1-18.3-1.2-1.8-1.6-3.4-1.1-4.7.4-1.2 1-3.6 1.3-5.5.3-1.9 1-5.5 1.5-8 .6-2.5 1.4-7.2 1.8-10.5.4-3.3.8-7.4 1-9 .5-4 .5-28.8 0-34.5-.8-9-1.9-17.2-3-22-.3-1.4-.8-3.7-1.1-5.3-1.2-6.3-1.7-8.4-5.4-19.6-4.7-14.3-13.2-32.1-21.3-45-3.4-5.3-6.4-9.8-6.7-10.1-.3-.3-1.9-2.3-3.5-4.5-4.8-6.5-14.6-17.5-21-23.5-3.3-3-6.8-6.3-7.8-7.3-1-.9-6-4.8-11-8.6-17.7-13.4-38.7-24.4-58.9-31-5.6-1.8-6.7-2.6-7.7-5.4-3.1-8.3-15.5-17-30.7-21.3-6.6-1.9-8.2-2.2-17-2.9-3.3-.3-6.9-.8-8.1-1-1.2-.3-2.3-.3-2.5-.1zm18.6 46c8.8.7 23 3.4 31 5.8 3.9 1.2 7.7 2.3 8.5 2.4 2.6.5 19.4 7.5 20.5 8.5.5.5 1.7.9 2.7.9 1 0 1.8.4 1.8 1 0 .5.5 1 1.1 1 1.7 0 14.9 8.1 24.2 14.8 8.5 6.1 26.7 23.4 33.4 31.7 14.9 18.6 27.9 44.1 33.4 65.5.6 2.5 1.1 4.6 1.1 4.7-.1.2.4 1.7.9 3.5s1.2 4.9 1.5 6.8c.3 1.9.7 4.6 1 6 2.1 12.2 2.1 45-.1 51.2-.2.7-.6 3.1-.9 5.3-.7 6.4-5.9 25.7-8.6 32-.5 1.1-2.1 4.9-3.6 8.5-3.4 7.9-9.1 18.9-11 21.1-.8.8-1.4 1.9-1.4 2.2 0 .7-7 10.8-8.1 11.7-.3.3-1 1.2-1.5 2.2-1.1 1.9-10.5 12.8-15 17.3-10.4 10.3-22.8 20.1-34.4 27.2-6.8 4.1-25.3 13.4-27.3 13.7-.7.1-1.6.4-2.2.7-3.2 1.9-22.5 7.2-34.5 9.4-14.5 2.7-46.7 2.7-60.1-.1-1.3-.2-4-.7-5.9-1-13.6-2.1-41.1-12.7-57-22-5.9-3.5-13.1-8.5-18-12.5-1.4-1.1-3.8-3-5.3-4.2-8.1-6.3-25.5-25.3-31.7-34.7-.8-1.2-2.3-3.3-3.2-4.5-1-1.3-1.8-2.7-1.8-3.1 0-.4-.6-1.5-1.4-2.3-2-2.3-8.7-15.5-12-23.6-1.6-3.9-3.2-7.9-3.7-9-2.3-5.5-5.1-16.4-8.5-33-.7-3.6-1.7-18.8-1.7-27.5 0-34.8 10.6-69.1 30.5-98.6 4-6 8.5-12.2 9.8-13.9 5.9-7 22.1-22.6 29-27.9 4.1-3.1 8-6 8.5-6.4 2.7-2.2 20.7-12.3 26.5-14.9 7-3.2 17.4-7.2 25.5-9.7 5.2-1.6 22.9-5.4 25.5-5.4 1.7 0 13.4-1.3 13.7-1.6.4-.3 23 .3 28.8.8z"/><path d="M244.4 238.6c-.3 1-1 2.8-1.5 3.9-.4 1.1-1.7 4.2-2.7 7-1 2.7-2.3 5.9-2.7 7-.5 1.1-.9 2.2-1 2.5-.1.3-.5 1.4-1 2.5-.4 1.1-2.3 6-4.2 11-1.9 4.9-3.8 9.9-4.3 11-.4 1.1-2.3 5.8-4 10.5-3 7.9-8 20.8-9.9 25.5-.5 1.1-1.8 4.7-3.1 8-1.2 3.3-2.6 6.9-3 8-.5 1.1-2.5 6.3-4.5 11.5s-4 10.4-4.5 11.5c-1.1 2.3-6 15.5-6 16.1 0 .2 10.6.4 23.5.4 22.2 0 23.6-.1 25.5-2 1.1-1.1 2-2.5 2-3.1 0-.6.6-2.5 1.4-4.2 1.5-3.4 2.9-6.9 3-7.7.7-3.3 12.3-30.9 12.9-30.7.5.1 2.1 2.5 3.6 5.2 1.5 2.8 4.6 8.3 6.9 12.3 2.3 4.1 4.2 7.8 4.2 8.2 0 .5.4 1 .8 1.2.4.1 1.4 1.6 2.2 3.3 4.3 8.7 13.3 24.5 13.9 24.5.7 0 4.3-6.2 12.9-22 1.6-3 4.6-8.4 6.6-12 2-3.6 5.5-10 7.8-14.3l4.3-7.8 1.6 3.8c1 2.1 2.7 6.3 3.9 9.3 1.1 3 2.5 6.4 3 7.5 1 2.2 4.8 12.1 7.9 20.6 1.3 3.3 3 6.1 4.4 6.8 1.5.8 8.8 1.1 24.9.9l22.6-.3-1.8-5c-1-2.8-2.7-7.3-3.8-10-1-2.8-4.5-11.8-7.6-20-3.1-8.3-6.1-15.9-6.6-17-.9-1.9-3.7-9.2-17.4-45-3.2-8.3-6.3-16.4-7-18-.7-1.7-3-7.4-5-12.8-2.1-5.3-4.1-9.5-4.4-9.3-.4.2-8.1 11.9-17.2 26s-19.3 29.9-22.7 35.2l-6.2 9.5-7-10.5c-3.9-5.8-7.1-11-7.1-11.5s-.3-1.1-.8-1.3c-.4-.2-3.2-4.1-6.2-8.8-8.8-14-24.2-37.4-25.1-38.4-.5-.6-1.1-.1-1.5 1zM509.5 415.2c-13.9 4.8-24.1 16.7-26.3 30.9-2.8 18.1 5.7 33.8 22.8 42.1 5.9 2.9 7.4 3.2 16 3.2 8.5 0 10.2-.3 16-3 8.1-3.8 13.3-8.3 17.7-15.1 14.2-22.3 2.3-52-23.7-59.1-6.2-1.6-16.1-1.2-22.5 1zM50 415.5c-18.6 5.8-30.3 22.2-28.7 40.3.8 8.2 2.1 12.6 5.5 17.9 8.2 12.8 21.3 19.7 35.7 18.9 17.7-1 30.8-11.3 36.5-28.9 1.1-3.5 1.6-14.1.7-17.7-2.9-12.6-10.5-22.3-22.2-28.1-5.3-2.6-7.8-3.2-14.7-3.4-5.1-.2-10 .2-12.8 1zM91.1 493.3l-2.2 2.4 9.3 9.1c30 29.4 65.8 51.6 103.8 64.3 14.6 4.9 22.5 6.9 40 10.4 2.3.5 12.3 2 19.5 3.1 6 .8 48.2 1.1 55.5.4 9.9-1.1 17.8-2.1 20.4-2.6 1.2-.3 3-.6 4.1-.8 4.1-.6 14.1-2.8 17-3.6 1.7-.5 4.3-1.1 5.8-1.4 3.1-.5 28.5-9.1 33.2-11.1 12.3-5.5 27.1-12.8 32.8-16.3 3.7-2.3 7-4.2 7.2-4.2 1 0 24-16.4 29.5-21.1 7.6-6.4 17-15.1 22.1-20.3 5.7-6 5.8-6 3.6-7.5-1.2-.8-2.5-1.9-2.9-2.5-.7-1.1-1.8-.3-10.7 8.4-7.7 7.5-13.7 12.9-19.1 17-2.5 1.9-4.6 3.8-4.8 4.2-.2.5-1 .8-1.7.8s-1.5.3-1.7.8c-.5 1.1-9.1 7.2-18.5 13.1-29 18-63.8 31-98.3 36.7-15.1 2.5-21.2 2.9-43 2.8-21.5 0-30.8-.6-43-2.9-13-2.3-19.7-3.7-24-5-2.5-.7-4.7-1.3-5-1.3-.3 0-1.2-.3-2-.6s-5.1-1.6-9.5-3c-11.3-3.5-24.1-8.8-37.5-15.5-12.2-6.1-16.2-8.3-17-9.2-.3-.3-3-2-6-3.8-12.7-7.7-29.2-20.7-43-34-5.2-5-10-9.1-10.6-9.1-.6 0-2 1.1-3.3 2.3z"/></svg>