<svg xmlns="http://www.w3.org/2000/svg" aria-hidden="true" style="width:0;height:0;position:absolute;overflow:hidden"><defs><symbol id="logo" viewBox="0 0 30 32"><path d="M13.31 17.879c-.218.556-.436 1.112-.652 1.668-.099.254-.186.514-.295.763-.033.075-.123.178-.188.179-.841.012-1.683.008-2.572.008l2.932-7.58 2.55 3.938 2.547-3.938 2.926 7.563c-.12.007-.212.017-.304.018-.684.001-1.368-.015-2.051.009-.268.009-.37-.098-.454-.324-.271-.726-.559-1.445-.843-2.166-.018-.047-.048-.09-.103-.189l-1.719 3.117a5395.19 5395.19 0 0 1-1.694-3.071l-.082.006.001-.001z"/><path d="M15.087 28.084a11.21 11.21 0 0 1-7.936-3.267 11.116 11.116 0 0 1-2.405-3.545c-.585-1.375-.882-2.836-.882-4.341s.297-2.966.882-4.341c.565-1.328 1.375-2.521 2.405-3.545s2.231-1.828 3.567-2.39a11.21 11.21 0 0 1 4.369-.877 11.21 11.21 0 0 1 7.936 3.267 11.116 11.116 0 0 1 2.405 3.545c.585 1.375.882 2.836.882 4.341s-.297 2.966-.882 4.341c-.565 1.328-1.375 2.521-2.405 3.545s-2.231 1.828-3.567 2.39a11.21 11.21 0 0 1-4.369.877zm0-20.953c-5.438 0-9.861 4.396-9.861 9.8s4.424 9.8 9.861 9.8 9.861-4.396 9.861-9.8c0-5.403-4.424-9.8-9.861-9.8z"/><path d="M25.823 26.823c-2.678 2.867-6.499 4.665-10.737 4.665s-8.085-1.809-10.764-4.694c-.11.1-.229.189-.354.27a15.038 15.038 0 0 0 11.117 4.858 15.035 15.035 0 0 0 11.095-4.834 2.814 2.814 0 0 1-.358-.266l.001.001zM.438 16.93c0-7.09 5.127-13.011 11.891-14.297a2.742 2.742 0 0 1-.041-.437A15.01 15.01 0 0 0 4.42 6.33a14.843 14.843 0 0 0-4.419 10.6c0 1.881.346 3.708 1.008 5.411.128-.076.262-.141.401-.196a14.396 14.396 0 0 1-.973-5.215h.001zM25.755 6.329a15.014 15.014 0 0 0-7.868-4.134 2.73 2.73 0 0 1-.041.437c6.763 1.286 11.891 7.207 11.891 14.297a14.4 14.4 0 0 1-.981 5.236c.139.058.271.127.398.205a14.9 14.9 0 0 0 1.02-5.441c0-4.004-1.569-7.769-4.419-10.601v.001zM15.083 4.311c1.198 0 2.169-.965 2.169-2.156s-.971-2.156-2.169-2.156-2.169.965-2.169 2.156.971 2.156 2.169 2.156zm12.588 22.577c1.198 0 2.169-.965 2.169-2.156s-.971-2.156-2.169-2.156-2.169.965-2.169 2.156.971 2.156 2.169 2.156zm-25.23.053c1.198 0 2.169-.965 2.169-2.156s-.971-2.156-2.169-2.156-2.169.965-2.169 2.156c0 1.19.971 2.156 2.169 2.156zm15.88-20.443c0 .998-1.45.293-3.239.293s-3.239.706-3.239-.293c0-.998 1.45-1.808 3.239-1.808s3.239.809 3.239 1.808zm3.992 18.653c-.855-.525.511-1.38 1.452-2.892s1.098-3.109 1.953-2.584c.855.525.786 2.176-.154 3.688s-2.395 2.313-3.25 1.788h-.001zm-17.844-5.4c.851-.531 1.02 1.065 1.971 2.57s2.324 2.35 1.473 2.882c-.851.531-2.312-.259-3.263-1.764s-1.032-3.156-.181-3.688z"/></symbol><symbol id="discord" viewBox="0 0 32 32"><path d="M25.693 7.107A22.596 22.596 0 0 0 20 5.334c-.018-.001-.035.003-.051.01s-.031.017-.042.03c-.24.44-.52 1.013-.707 1.453a21.453 21.453 0 0 0-6.4 0 13.515 13.515 0 0 0-.72-1.453c-.013-.027-.053-.04-.093-.04-2 .347-3.907.947-5.693 1.773-.013 0-.027.013-.04.027-3.627 5.427-4.627 10.707-4.133 15.933 0 .027.013.053.04.067 2.4 1.76 4.707 2.827 6.987 3.533.04.013.08 0 .093-.027a17.287 17.287 0 0 0 1.427-2.32c.027-.053 0-.107-.053-.12-.76-.293-1.48-.64-2.187-1.04-.053-.027-.053-.107-.013-.147.147-.107.293-.227.44-.333a.08.08 0 0 1 .093-.013c4.587 2.093 9.533 2.093 14.067 0 .027-.013.067-.013.093.013.147.12.293.227.44.347.053.04.053.12-.013.147a14.28 14.28 0 0 1-2.187 1.04c-.053.013-.067.08-.053.12.427.813.907 1.587 1.427 2.32.04.013.08.027.12.013 2.293-.707 4.6-1.773 7-3.533a.073.073 0 0 0 .04-.067c.587-6.04-.973-11.28-4.133-15.933-.013-.013-.027-.027-.053-.027zM11.36 19.881c-1.373 0-2.52-1.267-2.52-2.827s1.12-2.827 2.52-2.827c1.413 0 2.533 1.28 2.52 2.827 0 1.56-1.12 2.827-2.52 2.827zm9.293 0c-1.373 0-2.52-1.267-2.52-2.827s1.12-2.827 2.52-2.827c1.413 0 2.533 1.28 2.52 2.827 0 1.56-1.107 2.827-2.52 2.827z"/></symbol><symbol id="instagram" viewBox="0 0 32 32"><path d="M10.4 2.668h11.2a7.739 7.739 0 0 1 7.733 7.733v11.2a7.733 7.733 0 0 1-7.733 7.733H10.4a7.739 7.739 0 0 1-7.733-7.733v-11.2A7.733 7.733 0 0 1 10.4 2.668zm-.267 2.666a4.8 4.8 0 0 0-4.8 4.8v11.733c0 2.653 2.147 4.8 4.8 4.8h11.733a4.8 4.8 0 0 0 4.8-4.8V10.134c0-2.653-2.147-4.8-4.8-4.8H10.133zm12.867 2A1.663 1.663 0 0 1 24.667 9 1.667 1.667 0 1 1 23 7.334zm-7 2a6.67 6.67 0 0 1 4.714 11.381 6.67 6.67 0 0 1-9.428 0 6.67 6.67 0 0 1 0-9.428A6.67 6.67 0 0 1 16 9.334zm0 2.667a4.003 4.003 0 0 0-4 4 4.001 4.001 0 0 0 6.828 2.828 4.001 4.001 0 0 0 0-5.656A4 4 0 0 0 16 12.001z"/></symbol><symbol id="youtube" viewBox="0 0 32 32"><path d="m13.333 20.001 6.92-4-6.92-4v8zm15.414-10.44c.173.627.293 1.467.373 2.533.093 1.067.133 1.987.133 2.787l.08 1.12c0 2.92-.213 5.067-.587 6.44-.333 1.2-1.107 1.973-2.307 2.307-.627.173-1.773.293-3.533.373-1.733.093-3.32.133-4.787.133l-2.12.08c-5.587 0-9.067-.213-10.44-.587-1.2-.333-1.973-1.107-2.307-2.307-.173-.627-.293-1.467-.373-2.533a32.213 32.213 0 0 1-.133-2.787L2.666 16c0-2.92.213-5.067.587-6.44.333-1.2 1.107-1.973 2.307-2.307.627-.173 1.773-.293 3.533-.373a89.186 89.186 0 0 1 4.787-.133l2.12-.08c5.587 0 9.067.213 10.44.587 1.2.333 1.973 1.107 2.307 2.307z"/></symbol><symbol id="burger" viewBox="0 0 40 40"><path d="M8.333 28.333h23.334M8.333 20h23.334M8.333 11.667h23.334" stroke-width="2" stroke-linecap="round" stroke-linejoin="round"/></symbol><symbol id="close" viewBox="0 0 40 40"><path d="M30 30 10 10M30 10 10 30" stroke-width="2" stroke-linecap="round" stroke-linejoin="round"/></symbol></defs></svg>