<?xml version="1.0" standalone="no"?>
<!DOCTYPE svg PUBLIC "-//W3C//DTD SVG 20010904//EN"
 "http://www.w3.org/TR/2001/REC-SVG-20010904/DTD/svg10.dtd">
<svg version="1.0" xmlns="http://www.w3.org/2000/svg"
 width="584.000000pt" height="584.000000pt" viewBox="0 0 584.000000 584.000000"
 preserveAspectRatio="xMidYMid meet">
<metadata>
Created by potrace 1.14, written by Peter Selinger 2001-2017
</metadata>
<g transform="translate(0.000000,584.000000) scale(0.100000,-0.100000)"
fill="#000000" stroke="none">
<path d="M2815 5826 c-73 -23 -149 -69 -192 -116 -27 -30 -82 -131 -89 -162
-12 -55 -11 -151 1 -197 36 -138 129 -233 280 -287 67 -23 244 -3 286 33 8 7
20 13 26 13 12 0 113 92 113 103 0 5 6 15 14 23 44 43 73 202 54 289 -26 115
-115 229 -218 277 -80 38 -199 48 -275 24z"/>
<path d="M2377 5434 c-1 -2 -36 -10 -77 -18 -123 -26 -344 -97 -455 -147 -27
-12 -51 -21 -53 -20 -5 3 -292 -148 -302 -160 -3 -3 -27 -19 -55 -34 -27 -16
-52 -32 -55 -35 -3 -3 -27 -20 -55 -39 -176 -121 -414 -343 -556 -521 -89
-112 -209 -283 -209 -299 0 -6 -3 -11 -8 -11 -4 0 -23 -30 -42 -67 -19 -38
-45 -86 -59 -108 -13 -22 -23 -40 -22 -40 2 0 -9 -27 -24 -60 -78 -172 -164
-430 -180 -535 -2 -14 -9 -50 -15 -80 -18 -87 -28 -153 -38 -245 -8 -83 -8
-456 0 -535 11 -102 32 -238 44 -290 3 -14 8 -36 11 -50 2 -14 13 -59 25 -100
11 -41 21 -79 22 -85 2 -5 6 -17 9 -25 3 -8 13 -40 23 -70 9 -30 23 -67 30
-82 l14 -27 34 20 33 19 -24 68 c-14 37 -26 74 -28 82 -2 8 -13 47 -25 85 -20
66 -46 180 -55 235 -2 14 -6 36 -9 50 -23 119 -30 218 -30 420 -1 230 6 320
35 467 6 29 12 65 14 80 2 16 4 28 5 28 2 0 5 15 13 55 27 139 132 422 217
585 80 153 206 355 222 355 4 0 8 6 8 14 0 8 3 16 8 18 4 2 20 21 37 43 94
126 248 284 404 415 75 63 283 210 298 210 6 0 13 4 15 8 8 20 236 139 368
192 30 12 69 28 85 35 54 23 218 72 315 95 52 12 101 23 108 26 18 5 16 81 -3
81 -8 0 -16 -2 -18 -3z"/>
<path d="M3435 5427 c-2 -7 -5 -24 -8 -40 -4 -23 0 -28 22 -33 14 -3 37 -8 51
-11 14 -3 34 -8 44 -10 64 -12 298 -86 371 -118 160 -69 224 -100 350 -170
110 -62 294 -191 385 -270 115 -101 208 -191 284 -279 28 -32 56 -64 61 -70
40 -42 154 -204 228 -322 75 -121 229 -458 239 -524 0 -3 9 -30 20 -60 20 -59
64 -232 73 -290 3 -19 7 -46 10 -60 2 -14 7 -43 10 -65 2 -22 8 -62 12 -90 12
-85 8 -484 -6 -590 -15 -120 -66 -367 -81 -395 -6 -11 -9 -20 -6 -20 4 0 -49
-164 -69 -212 -5 -13 -2 -18 8 -18 8 0 20 -7 27 -15 7 -8 18 -15 24 -15 17 0
110 281 130 393 2 15 7 35 10 45 3 9 7 33 10 52 3 19 7 44 10 55 2 11 7 47 10
80 4 33 11 87 16 120 8 59 5 483 -4 540 -3 16 -8 52 -12 80 -3 27 -8 57 -9 66
-2 9 -6 34 -9 55 -4 21 -14 68 -22 104 -9 36 -17 72 -19 81 -2 8 -11 40 -20
70 -9 30 -18 64 -21 77 -7 35 -89 242 -132 333 -21 46 -40 89 -41 94 -1 6 -8
17 -15 25 -6 8 -22 35 -36 60 -49 93 -198 312 -255 377 -5 6 -26 31 -45 55
-44 54 -261 272 -315 315 -144 117 -256 199 -323 238 -9 5 -39 23 -67 40 -27
17 -81 46 -120 65 -38 19 -73 39 -76 43 -3 5 -10 9 -15 9 -5 0 -27 8 -49 18
-150 68 -360 140 -484 166 -13 3 -51 11 -83 19 -45 10 -60 11 -63 2z"/>
<path d="M2909 4986 c-2 -2 -40 -6 -84 -10 -221 -16 -414 -113 -480 -240 -18
-35 -28 -42 -110 -71 -126 -45 -138 -50 -250 -107 -337 -169 -631 -444 -833
-777 -96 -159 -187 -381 -227 -556 -4 -16 -9 -39 -12 -50 -2 -11 -6 -29 -8
-40 -2 -11 -6 -31 -9 -45 -32 -168 -38 -466 -12 -610 3 -14 7 -43 10 -65 6
-51 22 -130 35 -173 9 -29 6 -42 -22 -95 -30 -56 -32 -68 -32 -156 0 -81 6
-134 19 -186 2 -5 9 -23 15 -40 7 -16 14 -38 16 -48 4 -16 70 -148 87 -172 64
-89 140 -174 196 -219 77 -62 181 -115 236 -120 20 -2 39 -6 42 -9 3 -3 20 -1
37 4 43 12 43 12 69 -14 13 -12 52 -44 88 -70 36 -27 72 -53 81 -60 65 -49
251 -149 374 -200 106 -44 296 -103 360 -112 11 -1 36 -5 55 -9 79 -14 98 -17
160 -23 122 -13 439 -6 516 11 12 2 39 7 60 10 91 15 309 74 354 97 8 4 51 22
95 40 173 72 348 178 496 303 45 37 50 38 125 40 70 1 88 6 154 39 71 35 92
50 165 115 44 40 135 147 135 159 0 6 4 13 9 15 9 3 90 156 107 203 38 104 47
154 46 260 -1 73 -19 138 -51 183 -12 18 -16 34 -11 47 4 12 10 36 13 55 3 19
10 55 15 80 6 25 14 72 18 105 4 33 8 74 10 90 5 40 5 288 0 345 -8 90 -19
172 -30 220 -3 14 -8 37 -11 53 -12 63 -17 84 -54 196 -47 143 -132 321 -213
450 -34 53 -64 98 -67 101 -3 3 -19 23 -35 45 -48 65 -146 175 -210 235 -33
30 -68 63 -78 73 -10 9 -60 48 -110 86 -177 134 -387 244 -589 310 -56 18 -67
26 -77 54 -31 83 -155 170 -307 213 -66 19 -82 22 -170 29 -33 3 -69 8 -81 10
-12 3 -23 3 -25 1z m186 -460 c88 -7 230 -34 310 -58 39 -12 77 -23 85 -24 26
-5 194 -75 205 -85 5 -5 17 -9 27 -9 10 0 18 -4 18 -10 0 -5 5 -10 11 -10 17
0 149 -81 242 -148 85 -61 267 -234 334 -317 149 -186 279 -441 334 -655 6
-25 11 -46 11 -47 -1 -2 4 -17 9 -35 5 -18 12 -49 15 -68 3 -19 7 -46 10 -60
21 -122 21 -450 -1 -512 -2 -7 -6 -31 -9 -53 -7 -64 -59 -257 -86 -320 -5 -11
-21 -49 -36 -85 -34 -79 -91 -189 -110 -211 -8 -8 -14 -19 -14 -22 0 -7 -70
-108 -81 -117 -3 -3 -10 -12 -15 -22 -11 -19 -105 -128 -150 -173 -104 -103
-228 -201 -344 -272 -68 -41 -253 -134 -273 -137 -7 -1 -16 -4 -22 -7 -32 -19
-225 -72 -345 -94 -145 -27 -467 -27 -601 1 -13 2 -40 7 -59 10 -136 21 -411
127 -570 220 -59 35 -131 85 -180 125 -14 11 -38 30 -53 42 -81 63 -255 253
-317 347 -8 12 -23 33 -32 45 -10 13 -18 27 -18 31 0 4 -6 15 -14 23 -20 23
-87 155 -120 236 -16 39 -32 79 -37 90 -23 55 -51 164 -85 330 -7 36 -17 188
-17 275 0 348 106 691 305 986 40 60 85 122 98 139 59 70 221 226 290 279 41
31 80 60 85 64 27 22 207 123 265 149 70 32 174 72 255 97 52 16 229 54 255
54 17 0 134 13 137 16 4 3 230 -3 288 -8z"/>
<path d="M2444 3454 c-3 -10 -10 -28 -15 -39 -4 -11 -17 -42 -27 -70 -10 -27
-23 -59 -27 -70 -5 -11 -9 -22 -10 -25 -1 -3 -5 -14 -10 -25 -4 -11 -23 -60
-42 -110 -19 -49 -38 -99 -43 -110 -4 -11 -23 -58 -40 -105 -30 -79 -80 -208
-99 -255 -5 -11 -18 -47 -31 -80 -12 -33 -26 -69 -30 -80 -5 -11 -25 -63 -45
-115 -20 -52 -40 -104 -45 -115 -11 -23 -60 -155 -60 -161 0 -2 106 -4 235 -4
222 0 236 1 255 20 11 11 20 25 20 31 0 6 6 25 14 42 15 34 29 69 30 77 7 33
123 309 129 307 5 -1 21 -25 36 -52 15 -28 46 -83 69 -123 23 -41 42 -78 42
-82 0 -5 4 -10 8 -12 4 -1 14 -16 22 -33 43 -87 133 -245 139 -245 7 0 43 62
129 220 16 30 46 84 66 120 20 36 55 100 78 143 l43 78 16 -38 c10 -21 27 -63
39 -93 11 -30 25 -64 30 -75 10 -22 48 -121 79 -206 13 -33 30 -61 44 -68 15
-8 88 -11 249 -9 l226 3 -18 50 c-10 28 -27 73 -38 100 -10 28 -45 118 -76
200 -31 83 -61 159 -66 170 -9 19 -37 92 -174 450 -32 83 -63 164 -70 180 -7
17 -30 74 -50 128 -21 53 -41 95 -44 93 -4 -2 -81 -119 -172 -260 -91 -141
-193 -299 -227 -352 l-62 -95 -70 105 c-39 58 -71 110 -71 115 0 5 -3 11 -8
13 -4 2 -32 41 -62 88 -88 140 -242 374 -251 384 -5 6 -11 1 -15 -10z"/>
<path d="M5095 1688 c-139 -48 -241 -167 -263 -309 -28 -181 57 -338 228 -421
59 -29 74 -32 160 -32 85 0 102 3 160 30 81 38 133 83 177 151 142 223 23 520
-237 591 -62 16 -161 12 -225 -10z"/>
<path d="M500 1685 c-186 -58 -303 -222 -287 -403 8 -82 21 -126 55 -179 82
-128 213 -197 357 -189 177 10 308 113 365 289 11 35 16 141 7 177 -29 126
-105 223 -222 281 -53 26 -78 32 -147 34 -51 2 -100 -2 -128 -10z"/>
<path d="M911 907 l-22 -24 93 -91 c300 -294 658 -516 1038 -643 146 -49 225
-69 400 -104 23 -5 123 -20 195 -31 60 -8 482 -11 555 -4 99 11 178 21 204 26
12 3 30 6 41 8 41 6 141 28 170 36 17 5 43 11 58 14 31 5 285 91 332 111 123
55 271 128 328 163 37 23 70 42 72 42 10 0 240 164 295 211 76 64 170 151 221
203 57 60 58 60 36 75 -12 8 -25 19 -29 25 -7 11 -18 3 -107 -84 -77 -75 -137
-129 -191 -170 -25 -19 -46 -38 -48 -42 -2 -5 -10 -8 -17 -8 -7 0 -15 -3 -17
-8 -5 -11 -91 -72 -185 -131 -290 -180 -638 -310 -983 -367 -151 -25 -212 -29
-430 -28 -215 0 -308 6 -430 29 -130 23 -197 37 -240 50 -25 7 -47 13 -50 13
-3 0 -12 3 -20 6 -8 3 -51 16 -95 30 -113 35 -241 88 -375 155 -122 61 -162
83 -170 92 -3 3 -30 20 -60 38 -127 77 -292 207 -430 340 -52 50 -100 91 -106
91 -6 0 -20 -11 -33 -23z"/>
</g>
</svg>
