<svg xmlns="http://www.w3.org/2000/svg" width="58" height="61" fill="none"><g  clip-path="url(#a)"><path d="M25.372 34.081c-.415 1.06-.831 2.12-1.243 3.18-.189.485-.354.979-.563 1.455-.063.143-.234.339-.357.341-1.604.023-3.21.015-4.903.015l5.59-14.449 4.861 7.507c1.644-2.54 3.219-4.976 4.855-7.507 1.877 4.85 3.714 9.597 5.577 14.417-.228.014-.404.032-.58.033-1.303.003-2.608-.027-3.909.017-.511.017-.704-.188-.865-.619-.516-1.384-1.066-2.754-1.606-4.13-.035-.089-.092-.17-.196-.36l-3.278 5.943-3.229-5.853-.156.011h.002Z"/><path d="M28.759 53.535c-2.888 0-5.69-.563-8.328-1.671a21.334 21.334 0 0 1-6.8-4.556 21.18 21.18 0 0 1-4.585-6.758 21.016 21.016 0 0 1-1.682-8.275c0-2.87.566-5.655 1.682-8.276a21.184 21.184 0 0 1 4.585-6.758 21.328 21.328 0 0 1 6.8-4.556 21.381 21.381 0 0 1 8.328-1.67c2.887 0 5.69.562 8.328 1.67a21.334 21.334 0 0 1 6.8 4.556A21.179 21.179 0 0 1 48.472 24a21.015 21.015 0 0 1 1.682 8.276c0 2.869-.567 5.654-1.682 8.275a21.185 21.185 0 0 1-4.585 6.758 21.33 21.33 0 0 1-6.8 4.556 21.381 21.381 0 0 1-8.328 1.67Zm0-39.942c-10.366 0-18.799 8.38-18.799 18.68 0 10.3 8.433 18.68 18.799 18.68 10.365 0 18.798-8.38 18.798-18.68 0-10.3-8.433-18.68-18.798-18.68Z"/><path d="M49.225 51.132c-5.104 5.465-12.389 8.891-20.467 8.891A27.981 27.981 0 0 1 8.24 51.076c-.21.19-.436.361-.675.515.279.301.564.599.856.89 5.432 5.398 12.655 8.371 20.336 8.371 7.682 0 14.904-2.972 20.336-8.37.279-.277.548-.559.813-.844a5.31 5.31 0 0 1-.682-.507ZM.834 32.273c0-13.516 9.774-24.802 22.667-27.254a5.305 5.305 0 0 1-.078-.833 28.61 28.61 0 0 0-15 7.88C2.992 17.463 0 24.64 0 32.273c0 3.585.66 7.069 1.922 10.314.243-.144.5-.27.765-.374a27.458 27.458 0 0 1-1.854-9.94h.001ZM49.095 12.065a28.61 28.61 0 0 0-15-7.88c-.003.284-.03.563-.077.833 12.891 2.452 22.666 13.74 22.666 27.254a27.45 27.45 0 0 1-1.87 9.981c.265.11.518.242.76.391a28.413 28.413 0 0 0 1.944-10.372c0-7.633-2.99-14.81-8.423-20.208v.001ZM28.752 8.218c2.283 0 4.134-1.84 4.134-4.109 0-2.27-1.85-4.109-4.134-4.109-2.284 0-4.135 1.84-4.135 4.109 0 2.27 1.85 4.109 4.135 4.109ZM52.747 51.256c2.284 0 4.135-1.84 4.135-4.11 0-2.269-1.851-4.108-4.135-4.108-2.283 0-4.135 1.84-4.135 4.109s1.852 4.109 4.135 4.109ZM4.653 51.357c2.284 0 4.135-1.84 4.135-4.11 0-2.269-1.851-4.108-4.135-4.108-2.283 0-4.135 1.84-4.135 4.109s1.852 4.109 4.135 4.109ZM34.925 12.386c0 1.903-2.764.558-6.175.558-3.41 0-6.174 1.345-6.174-.558s2.764-3.447 6.174-3.447c3.41 0 6.175 1.543 6.175 3.447ZM42.533 47.945c-1.63-1 .975-2.63 2.768-5.513 1.791-2.883 2.093-5.928 3.723-4.926 1.63 1 1.498 4.148-.294 7.03-1.791 2.883-4.566 4.409-6.195 3.409h-.002ZM8.518 37.65c1.623-1.011 1.945 2.03 3.758 4.9 1.812 2.87 4.43 4.48 2.807 5.494-1.623 1.011-4.408-.495-6.22-3.364-1.812-2.87-1.967-6.017-.345-7.03Z"/></g><defs><clipPath id="a"><path d="M0 0h57.518v60.853H0z"/></clipPath></defs></svg>