<svg aria-hidden="true" style="position: absolute; width: 0; height: 0; overflow: hidden;" version="1.1" xmlns="http://www.w3.org/2000/svg" xmlns:xlink="http://www.w3.org/1999/xlink">
<defs>
<symbol id="logo" viewBox="0 0 30 32">
<path d="M13.31 17.879c-0.218 0.556-0.436 1.112-0.652 1.668-0.099 0.254-0.186 0.514-0.295 0.763-0.033 0.075-0.123 0.178-0.188 0.179-0.841 0.012-1.683 0.008-2.572 0.008 0.981-2.535 1.948-5.035 2.932-7.58 0.856 1.321 1.69 2.609 2.55 3.938 0.862-1.333 1.688-2.61 2.547-3.938 0.984 2.544 1.948 5.034 2.926 7.563-0.12 0.007-0.212 0.017-0.304 0.018-0.684 0.001-1.368-0.015-2.051 0.009-0.268 0.009-0.37-0.098-0.454-0.324-0.271-0.726-0.559-1.445-0.843-2.166-0.018-0.047-0.048-0.090-0.103-0.189-0.579 1.049-1.136 2.059-1.719 3.117-0.584-1.058-1.139-2.064-1.694-3.071l-0.082 0.006 0.001-0.001z"></path>
<path d="M15.087 28.084c-1.515 0-2.985-0.295-4.369-0.877-1.336-0.562-2.537-1.366-3.567-2.39s-1.84-2.217-2.405-3.545c-0.585-1.375-0.882-2.836-0.882-4.341s0.297-2.966 0.882-4.341c0.565-1.328 1.375-2.521 2.405-3.545s2.231-1.828 3.567-2.39c1.384-0.582 2.854-0.877 4.369-0.877s2.985 0.295 4.369 0.877c1.336 0.562 2.537 1.366 3.567 2.39s1.84 2.217 2.405 3.545c0.585 1.375 0.882 2.836 0.882 4.341s-0.297 2.966-0.882 4.341c-0.565 1.328-1.375 2.521-2.405 3.545s-2.231 1.828-3.567 2.39c-1.384 0.582-2.854 0.877-4.369 0.877zM15.087 7.131c-5.438 0-9.861 4.396-9.861 9.8s4.424 9.8 9.861 9.8 9.861-4.396 9.861-9.8c0-5.403-4.424-9.8-9.861-9.8z"></path>
<path d="M25.823 26.823c-2.678 2.867-6.499 4.665-10.737 4.665s-8.085-1.809-10.764-4.694c-0.11 0.1-0.229 0.189-0.354 0.27 0.146 0.158 0.296 0.314 0.449 0.467 2.849 2.831 6.638 4.391 10.668 4.391s7.818-1.559 10.668-4.391c0.146-0.145 0.287-0.293 0.427-0.443-0.126-0.079-0.246-0.168-0.358-0.266l0.001 0.001z"></path>
<path d="M0.438 16.93c0-7.090 5.127-13.011 11.891-14.297-0.025-0.143-0.039-0.288-0.041-0.437-2.963 0.55-5.691 1.97-7.868 4.134-2.85 2.831-4.419 6.596-4.419 10.6 0 1.881 0.346 3.708 1.008 5.411 0.128-0.076 0.262-0.141 0.401-0.196-0.628-1.62-0.973-3.378-0.973-5.215h0.001z"></path>
<path d="M25.755 6.329c-2.178-2.164-4.905-3.584-7.868-4.134-0.002 0.149-0.016 0.295-0.041 0.437 6.763 1.286 11.891 7.207 11.891 14.297 0 1.845-0.348 3.61-0.981 5.236 0.139 0.058 0.271 0.127 0.398 0.205 0.67-1.712 1.020-3.55 1.020-5.441 0-4.004-1.569-7.769-4.419-10.601v0.001z"></path>
<path d="M15.083 4.311c1.198 0 2.169-0.965 2.169-2.156s-0.971-2.156-2.169-2.156c-1.198 0-2.169 0.965-2.169 2.156s0.971 2.156 2.169 2.156z"></path>
<path d="M27.671 26.888c1.198 0 2.169-0.965 2.169-2.156s-0.971-2.156-2.169-2.156c-1.198 0-2.169 0.965-2.169 2.156s0.971 2.156 2.169 2.156z"></path>
<path d="M2.441 26.941c1.198 0 2.169-0.965 2.169-2.156s-0.971-2.156-2.169-2.156-2.169 0.965-2.169 2.156c0 1.19 0.971 2.156 2.169 2.156z"></path>
<path d="M18.321 6.498c0 0.998-1.45 0.293-3.239 0.293s-3.239 0.706-3.239-0.293c0-0.998 1.45-1.808 3.239-1.808s3.239 0.809 3.239 1.808z"></path>
<path d="M22.313 25.151c-0.855-0.525 0.511-1.38 1.452-2.892s1.098-3.109 1.953-2.584c0.855 0.525 0.786 2.176-0.154 3.688s-2.395 2.313-3.25 1.788h-0.001z"></path>
<path d="M4.469 19.751c0.851-0.531 1.020 1.065 1.971 2.57s2.324 2.35 1.473 2.882c-0.851 0.531-2.312-0.259-3.263-1.764s-1.032-3.156-0.181-3.688z"></path>
</symbol>
<symbol id="discord" viewBox="0 0 32 32">
<path d="M25.693 7.107c-1.773-0.827-3.693-1.427-5.693-1.773-0.018-0.001-0.035 0.003-0.051 0.010s-0.031 0.017-0.042 0.030c-0.24 0.44-0.52 1.013-0.707 1.453-2.121-0.32-4.279-0.32-6.4 0-0.187-0.453-0.467-1.013-0.72-1.453-0.013-0.027-0.053-0.040-0.093-0.040-2 0.347-3.907 0.947-5.693 1.773-0.013 0-0.027 0.013-0.040 0.027-3.627 5.427-4.627 10.707-4.133 15.933 0 0.027 0.013 0.053 0.040 0.067 2.4 1.76 4.707 2.827 6.987 3.533 0.040 0.013 0.080 0 0.093-0.027 0.533-0.733 1.013-1.507 1.427-2.32 0.027-0.053 0-0.107-0.053-0.12-0.76-0.293-1.48-0.64-2.187-1.040-0.053-0.027-0.053-0.107-0.013-0.147 0.147-0.107 0.293-0.227 0.44-0.333 0.027-0.027 0.067-0.027 0.093-0.013 4.587 2.093 9.533 2.093 14.067 0 0.027-0.013 0.067-0.013 0.093 0.013 0.147 0.12 0.293 0.227 0.44 0.347 0.053 0.040 0.053 0.12-0.013 0.147-0.693 0.413-1.427 0.747-2.187 1.040-0.053 0.013-0.067 0.080-0.053 0.12 0.427 0.813 0.907 1.587 1.427 2.32 0.040 0.013 0.080 0.027 0.12 0.013 2.293-0.707 4.6-1.773 7-3.533 0.027-0.013 0.040-0.040 0.040-0.067 0.587-6.040-0.973-11.28-4.133-15.933-0.013-0.013-0.027-0.027-0.053-0.027zM11.36 19.881c-1.373 0-2.52-1.267-2.52-2.827s1.12-2.827 2.52-2.827c1.413 0 2.533 1.28 2.52 2.827 0 1.56-1.12 2.827-2.52 2.827zM20.653 19.881c-1.373 0-2.52-1.267-2.52-2.827s1.12-2.827 2.52-2.827c1.413 0 2.533 1.28 2.52 2.827 0 1.56-1.107 2.827-2.52 2.827z"></path>
</symbol>
<symbol id="instagram" viewBox="0 0 32 32">
<path d="M10.4 2.668h11.2c4.267 0 7.733 3.467 7.733 7.733v11.2c0 2.051-0.815 4.018-2.265 5.468s-3.417 2.265-5.468 2.265h-11.2c-4.267 0-7.733-3.467-7.733-7.733v-11.2c0-2.051 0.815-4.018 2.265-5.468s3.417-2.265 5.468-2.265zM10.133 5.334c-1.273 0-2.494 0.506-3.394 1.406s-1.406 2.121-1.406 3.394v11.733c0 2.653 2.147 4.8 4.8 4.8h11.733c1.273 0 2.494-0.506 3.394-1.406s1.406-2.121 1.406-3.394v-11.733c0-2.653-2.147-4.8-4.8-4.8h-11.733zM23 7.334c0.442 0 0.866 0.176 1.179 0.488s0.488 0.736 0.488 1.178-0.176 0.866-0.488 1.179c-0.313 0.313-0.737 0.488-1.179 0.488s-0.866-0.176-1.178-0.488c-0.313-0.313-0.488-0.736-0.488-1.179s0.176-0.866 0.488-1.178c0.313-0.313 0.736-0.488 1.178-0.488zM16 9.334c1.768 0 3.464 0.702 4.714 1.953s1.953 2.946 1.953 4.714c0 1.768-0.702 3.464-1.953 4.714s-2.946 1.953-4.714 1.953c-1.768 0-3.464-0.702-4.714-1.953s-1.953-2.946-1.953-4.714c0-1.768 0.702-3.464 1.953-4.714s2.946-1.953 4.714-1.953zM16 12.001c-1.061 0-2.078 0.421-2.828 1.172s-1.172 1.768-1.172 2.828 0.421 2.078 1.172 2.828c0.75 0.75 1.768 1.172 2.828 1.172s2.078-0.421 2.828-1.172c0.75-0.75 1.172-1.768 1.172-2.828s-0.421-2.078-1.172-2.828c-0.75-0.75-1.767-1.172-2.828-1.172z"></path>
</symbol>
<symbol id="youtube" viewBox="0 0 32 32">
<path d="M13.333 20.001l6.92-4-6.92-4v8zM28.747 9.561c0.173 0.627 0.293 1.467 0.373 2.533 0.093 1.067 0.133 1.987 0.133 2.787l0.080 1.12c0 2.92-0.213 5.067-0.587 6.44-0.333 1.2-1.107 1.973-2.307 2.307-0.627 0.173-1.773 0.293-3.533 0.373-1.733 0.093-3.32 0.133-4.787 0.133l-2.12 0.080c-5.587 0-9.067-0.213-10.44-0.587-1.2-0.333-1.973-1.107-2.307-2.307-0.173-0.627-0.293-1.467-0.373-2.533-0.093-1.067-0.133-1.987-0.133-2.787l-0.080-1.12c0-2.92 0.213-5.067 0.587-6.44 0.333-1.2 1.107-1.973 2.307-2.307 0.627-0.173 1.773-0.293 3.533-0.373 1.733-0.093 3.32-0.133 4.787-0.133l2.12-0.080c5.587 0 9.067 0.213 10.44 0.587 1.2 0.333 1.973 1.107 2.307 2.307z"></path>
</symbol>
</defs>
</svg>
